<?xml version="1.0" encoding="UTF-8"?>
<svg id="Layer_1" data-name="Layer 1" xmlns="http://www.w3.org/2000/svg" viewBox="0 0 856 516">
  <defs>
    <style>
      .cls-1 {
        stroke-width: 2px;
      }

      .cls-1, .cls-2, .cls-3 {
        fill: none;
        stroke: #000;
        stroke-miterlimit: 10;
      }

      .cls-3 {
        stroke-width: .5px;
      }
    </style>
  </defs>
  <path class="cls-2" d="m623.18,223.47c21.58.05,23.84-37.4,14.93-41.88-13.42-6.75,7.68,26.75,1.82,39.19-2.47,5.26-8.39,8.75-16.75,9.09-4.62.19-10.2-1.33-12.99-4.86-6.14-7.77,10.21-21.43,4.91-20.7-14.71,2.03-12.59,19.11,8.09,19.16Z"/>
  <path class="cls-2" d="m744.04,180.05c10.45,0-31.34,52.23,9.09,50.78,16.2-.58,24.8-9.93,18.83-8.83-7.36,1.36-18.42,5.64-29.44.97-18.06-7.66-6.31-42.92,1.52-42.92Z"/>
  <path class="cls-2" d="m189.48,185.77c2.62,2.71-44.37-8.25-44.37,22.21s38.22,22.96,44.37,15.99c3.41-3.87-44.37,13.65-44.37-23.19,0-24.98,37.3-22.31,44.37-15Z"/>
  <path class="cls-2" d="m447.17,185.77c2.42,2.71-40.9-8.25-40.9,22.21,0,16.54,11.1,21.9,21.84,21.9,13.89,0,20.59-4.13,20.59-12.13,0-16.81-31.93-15.77-25.96-7.67,4.81,6.53,28.16-13.06,28.16,3.79,0,9.27-14.92,10.86-23,10.86-10.64,0-21.63-5.54-21.63-23.96,0-24.98,34.39-22.31,40.9-15Z"/>
  <path class="cls-2" d="m120.52,195.93c-4.06,11.08-11.49,11.75-21.55,9.14-18.53-4.81-14.39-28.3-11.76-21.94,3.14,7.57-12.67,46.75,16.07,46.75,21.55,0,25.86-20.89,11.49-23.5-36.63-6.66-30.17-23.5-14.37-24.81,16.69-1.38,22.99,6.53,20.11,14.36Z"/>
  <path class="cls-2" d="m38.17,199.84c-26.71,0-27.4,26.42-22.08,29.5,6.25,3.62,38.34-52.24,44.5-48.66,5.24,3.04,4.28,30.91-22.42,30.91s25.7-35.08,21.45-30.53c-6.13,6.57-5.25,52.22.97,48.62,5.29-3.06,4.28-29.84-22.42-29.84Z"/>
  <path class="cls-2" d="m494.61,200.27c23.24,0,19.91,25.15,16.65,29.08-4.29,5.16-4.48-50.68-.48-48.14,3.75,2.39,6.38,28.16-16.17,28.16-21.19,0-18.78-25.7-15.52-28.5,4.19-3.6,3.63,52.75-.24,48.82-3.48-3.53-6.79-29.41,15.76-29.41Z"/>
  <path class="cls-2" d="m819.74,193.66c-6.17,0-29.55,35.88-23.26,35.88,19.56,0-7.59-48.84-.34-48.84,6.33,0,17.44,35.17,23.61,35.17,7.4,0,15.05-35.17,22.22-35.17,6.16,0-18.52,49.18.34,49.18,6.25,0-16.39-36.22-22.56-36.22Z"/>
  <path class="cls-2" d="m248.22,316.98c-2.86,1.15-12.7-1.54-18.65-4.73-5.37-2.87-9.89-7.39-7.24-8.59,2.61-1.19,11.94.95,17.78,3.73,6.83,3.26,11,8.42,8.1,9.59Z"/>
  <ellipse class="cls-2" cx="98.88" cy="289.45" rx="26.8" ry="20.74" transform="translate(-197.4 213.45) rotate(-56.75)"/>
  <ellipse class="cls-2" cx="229.46" cy="289.45" rx="26.8" ry="20.74" transform="translate(-138.41 322.66) rotate(-56.75)"/>
  <ellipse class="cls-2" cx="104.2" cy="289.45" rx="26.8" ry="20.74" transform="translate(-194.99 217.9) rotate(-56.75)"/>
  <path class="cls-2" d="m155.83,267.03c14.94-4.92,26.83-2.68,26.22,12.28-.94,22.93-30.82,10.67-33.12,9.03-2.05-1.47,1.67,4.39,4.6,10.65,2.3,4.92,3.51,12.04-1.15,14.36-5.75,2.85-4.6-6.16-4.18-27.2.25-12.57-2.22-15.88,7.62-19.12Z"/>
  <path class="cls-2" d="m297.32,264.69c-34.34.46-16.45,49.01,16.45,49.15,7.58.03-4.5-5.48-9.87-9.16-6-4.11-14.43-9.91-19.45-13.79-10.73-8.27-18.21-31.27-9.39-18.38,10.06,14.71-4.03,41.36,6.04,41.36,32.87,0,49.49-49.62,16.23-49.18Z"/>
  <path class="cls-2" d="m492.2,314.3c28.08,0,28.08-50.58,19.71-50.58-12.09,0,8.32,49.53.3,49.53-6.1,0-13.18-16.91-19.48-16.91s-16.53,9.19-17.31,8.27c-8.48-9.91,9.44-41.24-3.23-41.24-7.78,0-7.78,50.93,20.01,50.93Z"/>
  <path class="cls-2" d="m336.89,312.15c-.24.05-.19.42.05.41,38.81-1.04,48.48-1.59,49.02-5.42.27-1.9-3.64-6.1-26.39-13.45-15.84-5.12-23.17-9.09-23.08-12.79.22-10.06,52.89-15.57,48.08-15.77-84.33-3.42-34.93,13.9-20.37,19.45,22.55,8.6,43.85,14.07-27.31,27.57Z"/>
  <path class="cls-2" d="m427.22,314.3c-7.61,0-8.8-49.58,0-49.58,10.31,0,26.09-.56,26.09,2.49,0,4.61-19.5,6.06-26.09,6.06-8.78,0-26.19-1.45-26.19-5.39,0-3.58,16.19-3.17,26.19-3.17,8.74,0,7.92,49.58,0,49.58Z"/>
  <path class="cls-2" d="m532.6,263.54c3.23-3.33,12.55,50.52,27.49,50.69,14.92.17,26.2-48.02,23.61-50.69-3.4-3.5-14.54,50.68-29.76,50.69-15.36,0-24.58-47.35-21.35-50.69Z"/>
  <path class="cls-2" d="m623.89,314.3c32.2,0,32.19-50.58,22.6-50.58-13.87,0,9.54,49.53.34,49.53-6.99,0-15.11-40.81-22.33-40.81s-17.14,40.44-24.36,40.44c-8.12,0,15.34-49.51.8-49.51-8.92,0-8.92,50.92,22.94,50.92Z"/>
  <path class="cls-2" d="m689.44,281.82c-15.88.05-29.25,28.81-23.58,31.96,6.68,3.71,40.94-53.55,47.51-49.88,5.6,3.12-7.91,31.96-23.93,31.96-16.09,0-29.58-29.18-23.93-32.32,6.65-3.69,41.23,54.27,47.87,50.59,5.64-3.13-7.96-32.36-23.93-32.32Z"/>
  <path class="cls-2" d="m753.61,314.3c-7.09,0-6.94-28.81,0-35.41,6.2-5.9,18.4-17.5,21.06-14.97,4.18,3.98-15.75,25.93-21.06,25.93-7.09,0-25.36-22.23-21.14-26.24,2.1-1.99,14.94,9.38,21.14,15.28,6.94,6.6,7.09,35.41,0,35.41Z"/>
  <path class="cls-2" d="m844.83,310.97c.24.04.22.39-.02.4-38.8,1.53-48.99-.95-49.35-3.33-.28-1.83,3.25-6.09,25.5-14.63,15.49-5.94,22.55-10.23,22.24-13.77-.85-9.64-55.28-14.37-50.47-14.54,82.26-2.92,41.45,8.52,24.21,17.17-20.18,10.13-49.52,16.61,27.91,28.7Z"/>
  <path class="cls-2" d="m11.39,313.04c-.05.23-.4.19-.39-.05.99-38.05,4.1-47.86,6.48-48.06,1.83-.15,5.82,3.57,12.83,25.87,4.88,15.53,8.66,22.71,12.19,22.63,9.59-.22,17.79-53.16,17.65-48.44-2.42,80.65-9.48,41.48-18.55,22.58-9.6-19.99-13.24-49.49-30.21,25.46Z"/>
  <path class="cls-2" d="m277.79,205.03c0,23.6,41.87,13.01,41.87,19.67,0,3.93-41.2,9.8-41.01-.88.37-19.97,32.38-27.17,28.29-18.71-2.28,4.7-28.57-.09-28.57-19.75,0-7.29,37.77-4.94,37.77-.3,0,5.94-38.34-5.82-38.34,19.96Z"/>
  <path class="cls-2" d="m344.48,201.49c5.22,9.09,8.48,13.68,6.53,23.39-1.31,6.5-7.26,7.7-7.06-2.6.37-19.25,32.38-26.2,28.29-18.04-2.28,4.53-28.57-.09-28.57-19.04,0-7.03,37.77-4.76,37.77-.29,0,5.73-49.34-5-36.94,16.58Z"/>
  <path class="cls-2" d="m557.46,206.31c0,20.6.27,25.78-6.26,22.8-6.12-2.8,24.14-2.64,17.58,0-6.69,2.69-7.24-2.19-7.24-22.8s.57-26.39,7.24-23.67c5.37,2.19-24.33,3.11-17.58,0,5.65-2.61,6.26,3.07,6.26,23.67Z"/>
  <path class="cls-2" d="m680.84,204.7c0-11.03,25.32-28.53,27.92-22.71,3.06,6.84-25.94,47.77-31.18,47.77-4.57,0-6.53-8.1-6.53-24.53,0-16.48,1.96-24.53,6.53-24.53,7.56,0,27.3,54.89,31.47,48.69,17.49-25.98-28.21-13.68-28.21-24.69Z"/>
  <path class="cls-2" d="m254.59,209.98c-.47,8.89-4.1,19.79-22.11,20.32-9.85.29-11.69-2.11-13.48-6.59-.91-2.27-1.41-9.96-1.41-18.21v-15.21c0-6.26-1.01-9.58,10.95-9.58,13.48,0,25.6,7.87,26.06,20.27.58,15.46-6.52,25.43-22.11,25.43s-18.79,1.47-18.79-19.11v-13.42c0-8.05,4.42-8.35,16.06-8.05,13.48.34,25.65,8.84,24.85,24.16Z"/>
  <path class="cls-3" d="m623.18,55.03c21.58.05,23.84-37.4,14.93-41.88-13.42-6.75,7.68,26.75,1.82,39.19-2.47,5.26-8.39,8.75-16.75,9.09-4.62.19-10.2-1.33-12.99-4.86-6.14-7.77,10.21-21.43,4.91-20.7-14.71,2.03-12.59,19.11,8.09,19.16Z"/>
  <path class="cls-3" d="m744.04,11.61c10.45,0-31.34,52.23,9.09,50.78,16.2-.58,24.8-9.93,18.83-8.83-7.36,1.36-18.42,5.64-29.44.97-18.06-7.66-6.31-42.92,1.52-42.92Z"/>
  <path class="cls-3" d="m189.48,17.33c2.62,2.71-44.37-8.25-44.37,22.21s38.22,22.96,44.37,15.99c3.41-3.87-44.37,13.65-44.37-23.19,0-24.98,37.3-22.31,44.37-15Z"/>
  <path class="cls-3" d="m447.17,17.33c2.42,2.71-40.9-8.25-40.9,22.21,0,16.54,11.1,21.9,21.84,21.9,13.89,0,20.59-4.13,20.59-12.13,0-16.81-31.93-15.77-25.96-7.67,4.81,6.53,28.16-13.06,28.16,3.79,0,9.27-14.92,10.86-23,10.86-10.64,0-21.63-5.54-21.63-23.96,0-24.98,34.39-22.31,40.9-15Z"/>
  <path class="cls-3" d="m120.52,25.49c-4.02,14.01-17.97,15.62-28.02,13.01-18.53-4.81-7.92-32.17-5.29-25.81,3.14,7.57-12.45,48.74,16.29,48.81,25.22.06,25.64-22.95,11.28-25.56-36.63-6.66-30.17-23.5-14.37-24.81,16.69-1.38,22.42,6.34,20.11,14.36Z"/>
  <path class="cls-3" d="m87.5,12.5c3.14,7.57-12.74,41.93,16,42,25.22.06,20.37-17.39,6-20"/>
  <path class="cls-3" d="m38.17,31.4c-26.71,0-27.4,26.42-22.08,29.5,6.25,3.62,38.34-52.24,44.5-48.66,5.24,3.04,4.28,30.91-22.42,30.91S63.86,8.05,59.61,12.61c-6.13,6.57-5.25,52.22.97,48.62,5.29-3.06,4.28-29.84-22.42-29.84Z"/>
  <path class="cls-3" d="m494.61,31.83c23.24,0,19.91,25.15,16.65,29.08-4.29,5.16-4.48-50.68-.48-48.14,3.75,2.39,6.38,28.16-16.17,28.16-21.19,0-18.78-25.7-15.52-28.5,4.19-3.6,3.63,52.75-.24,48.82-3.48-3.53-6.79-29.41,15.76-29.41Z"/>
  <path class="cls-3" d="m819.74,25.22c-6.17,0-29.55,35.88-23.26,35.88,19.56,0-7.59-48.84-.34-48.84,6.33,0,17.44,35.17,23.61,35.17,7.4,0,15.05-35.17,22.22-35.17,6.16,0-18.52,49.18.34,49.18,6.25,0-16.39-36.22-22.56-36.22Z"/>
  <path class="cls-3" d="m248.22,128.54c-2.86,1.15-12.7-1.54-18.65-4.73-5.37-2.87-9.89-7.39-7.24-8.59,2.61-1.19,11.94.95,17.78,3.73,6.83,3.26,11,8.42,8.1,9.59Z"/>
  <ellipse class="cls-3" cx="98.88" cy="121" rx="26.8" ry="20.74" transform="translate(-56.53 137.36) rotate(-56.75)"/>
  <ellipse class="cls-3" cx="229.46" cy="121" rx="26.8" ry="20.74" transform="translate(2.46 246.56) rotate(-56.75)"/>
  <ellipse class="cls-3" cx="104.2" cy="121" rx="26.8" ry="20.74" transform="translate(-54.12 141.81) rotate(-56.75)"/>
  <path class="cls-3" d="m155.83,98.59c14.94-4.92,26.83-2.68,26.22,12.28-.94,22.93-30.82,10.67-33.12,9.03-2.05-1.47,1.67,4.39,4.6,10.65,2.3,4.92,3.51,12.04-1.15,14.36-5.75,2.85-4.6-6.16-4.18-27.2.25-12.57-2.22-15.88,7.62-19.12Z"/>
  <path class="cls-3" d="m297.32,96.25c-34.34.46-16.45,49.01,16.45,49.15,7.58.03-4.5-5.48-9.87-9.16-6-4.11-14.43-9.91-19.45-13.79-10.73-8.27-18.21-31.27-9.39-18.38,10.06,14.71-4.03,41.36,6.04,41.36,32.87,0,49.49-49.62,16.23-49.18Z"/>
  <path class="cls-3" d="m492.2,145.86c28.08,0,28.08-50.58,19.71-50.58-12.09,0,8.32,49.53.3,49.53-6.1,0-13.18-16.91-19.48-16.91s-16.53,9.19-17.31,8.27c-8.48-9.91,9.44-41.24-3.23-41.24-7.78,0-7.78,50.93,20.01,50.93Z"/>
  <path class="cls-3" d="m336.89,143.71c-.24.05-.19.42.05.41,38.81-1.04,48.48-1.59,49.02-5.42.27-1.9-3.64-6.1-26.39-13.45-15.84-5.12-23.17-9.09-23.08-12.79.22-10.06,52.89-15.57,48.08-15.77-84.33-3.42-34.93,13.9-20.37,19.45,22.55,8.6,43.85,14.07-27.31,27.57Z"/>
  <path class="cls-3" d="m427.22,145.86c-7.61,0-8.8-49.58,0-49.58,10.31,0,26.09-.56,26.09,2.49,0,4.61-19.5,6.06-26.09,6.06-8.78,0-26.19-1.45-26.19-5.39,0-3.58,16.19-3.17,26.19-3.17,8.74,0,7.92,49.58,0,49.58Z"/>
  <path class="cls-3" d="m532.6,95.1c3.23-3.33,12.55,50.52,27.49,50.69,14.92.17,26.2-48.02,23.61-50.69-3.4-3.5-14.54,50.68-29.76,50.69-15.36,0-24.58-47.35-21.35-50.69Z"/>
  <path class="cls-3" d="m623.89,145.86c32.2,0,32.19-50.58,22.6-50.58-13.87,0,9.54,49.53.34,49.53-6.99,0-15.11-40.81-22.33-40.81s-17.14,40.44-24.36,40.44c-8.12,0,15.34-49.51.8-49.51-8.92,0-8.92,50.92,22.94,50.92Z"/>
  <path class="cls-3" d="m689.44,113.38c-15.88.05-29.25,28.81-23.58,31.96,6.68,3.71,40.94-53.55,47.51-49.88,5.6,3.12-7.91,31.96-23.93,31.96-16.09,0-29.58-29.18-23.93-32.32,6.65-3.69,41.23,54.27,47.87,50.59,5.64-3.13-7.96-32.36-23.93-32.32Z"/>
  <path class="cls-3" d="m753.61,145.86c-7.09,0-6.94-28.81,0-35.41,6.2-5.9,18.4-17.5,21.06-14.97,4.18,3.98-15.75,25.93-21.06,25.93-7.09,0-25.36-22.23-21.14-26.24,2.1-1.99,14.94,9.38,21.14,15.28,6.94,6.6,7.09,35.41,0,35.41Z"/>
  <path class="cls-3" d="m844.83,142.53c.24.04.22.39-.02.4-38.8,1.53-48.99-.95-49.35-3.33-.28-1.83,3.25-6.09,25.5-14.63,15.49-5.94,22.55-10.23,22.24-13.77-.85-9.64-55.28-14.37-50.47-14.54,82.26-2.92,41.45,8.52,24.21,17.17-20.18,10.13-49.52,16.61,27.91,28.7Z"/>
  <path class="cls-3" d="m11.39,144.6c-.05.23-.4.19-.39-.05.99-38.05,4.1-47.86,6.48-48.06,1.83-.15,5.82,3.57,12.83,25.87,4.88,15.53,8.66,22.71,12.19,22.63,9.59-.22,17.79-53.16,17.65-48.44-2.42,80.65-9.48,41.48-18.55,22.58-9.6-19.99-13.24-49.49-30.21,25.46Z"/>
  <path class="cls-3" d="m277.79,36.58c0,23.6,41.87,13.01,41.87,19.67,0,3.93-41.2,9.8-41.01-.88.37-19.97,32.38-27.17,28.29-18.71-2.28,4.7-28.57-.09-28.57-19.75,0-7.29,37.77-4.94,37.77-.3,0,5.94-38.34-5.82-38.34,19.96Z"/>
  <path class="cls-3" d="m344.48,33.05c5.22,9.09,8.48,13.68,6.53,23.39-1.31,6.5-7.26,7.7-7.06-2.6.37-19.25,32.38-26.2,28.29-18.04-2.28,4.53-28.57-.09-28.57-19.04,0-7.03,37.77-4.76,37.77-.29,0,5.73-49.34-5-36.94,16.58Z"/>
  <path class="cls-3" d="m557.46,37.87c0,20.6.27,25.78-6.26,22.8-6.12-2.8,24.14-2.64,17.58,0-6.69,2.69-7.24-2.19-7.24-22.8s.57-26.39,7.24-23.67c5.37,2.19-24.33,3.11-17.58,0,5.65-2.61,6.26,3.07,6.26,23.67Z"/>
  <path class="cls-3" d="m680.84,36.26c0-11.03,25.32-28.53,27.92-22.71,3.06,6.84-25.94,47.77-31.18,47.77-4.57,0-6.53-8.1-6.53-24.53,0-16.48,1.96-24.53,6.53-24.53,7.56,0,27.3,54.89,31.47,48.69,17.49-25.98-28.21-13.68-28.21-24.69Z"/>
  <path class="cls-3" d="m254.59,41.53c-.47,8.89-4.1,19.79-22.11,20.32-9.85.29-11.69-2.11-13.48-6.59-.91-2.27-1.41-9.96-1.41-18.21v-15.21c0-6.26-1.01-9.58,10.95-9.58,13.48,0,25.6,7.87,26.06,20.27.58,15.46-6.52,25.43-22.11,25.43s-18.79,1.47-18.79-19.11v-13.42c0-8.05,4.42-8.35,16.06-8.05,13.48.34,25.65,8.84,24.85,24.16Z"/>
  <path class="cls-1" d="m623.18,390.61c21.58.05,23.84-37.4,14.93-41.88-13.42-6.75,7.68,26.75,1.82,39.19-2.47,5.26-8.39,8.75-16.75,9.09-4.62.19-10.2-1.33-12.99-4.86-6.14-7.77,10.21-21.43,4.91-20.7-14.71,2.03-12.59,19.11,8.09,19.16Z"/>
  <path class="cls-1" d="m744.04,347.19c10.45,0-31.34,52.23,9.09,50.78,16.2-.58,24.8-9.93,18.83-8.83-7.36,1.36-18.42,5.64-29.44.97-18.06-7.66-6.31-42.92,1.52-42.92Z"/>
  <path class="cls-1" d="m189.48,352.91c2.62,2.71-44.37-8.25-44.37,22.21s38.22,22.96,44.37,15.99c3.41-3.87-44.37,13.65-44.37-23.19,0-24.98,37.3-22.31,44.37-15Z"/>
  <path class="cls-1" d="m447.17,352.91c2.42,2.71-40.9-8.25-40.9,22.21,0,16.54,11.1,21.9,21.84,21.9,13.89,0,20.59-4.13,20.59-12.13,0-16.81-31.93-15.77-25.96-7.67,4.81,6.53,28.16-13.06,28.16,3.79,0,9.27-14.92,10.86-23,10.86-10.64,0-21.63-5.54-21.63-23.96,0-24.98,34.39-22.31,40.9-15Z"/>
  <path class="cls-1" d="m120.52,363.07c-4.06,11.08-11.49,11.75-21.55,9.14-18.53-4.81-14.39-28.3-11.76-21.94,3.14,7.57-12.67,46.75,16.07,46.75,21.55,0,25.86-20.89,11.49-23.5-36.63-6.66-30.17-23.5-14.37-24.81,16.69-1.38,22.99,6.53,20.11,14.36Z"/>
  <path class="cls-1" d="m38.17,366.98c-26.71,0-27.4,26.42-22.08,29.5,6.25,3.62,38.34-52.24,44.5-48.66,5.24,3.04,4.28,30.91-22.42,30.91s25.7-35.08,21.45-30.53c-6.13,6.57-5.25,52.22.97,48.62,5.29-3.06,4.28-29.84-22.42-29.84Z"/>
  <path class="cls-1" d="m494.61,367.41c23.24,0,19.91,25.15,16.65,29.08-4.29,5.16-4.48-50.68-.48-48.14,3.75,2.39,6.38,28.16-16.17,28.16-21.19,0-18.78-25.7-15.52-28.5,4.19-3.6,3.63,52.75-.24,48.82-3.48-3.53-6.79-29.41,15.76-29.41Z"/>
  <path class="cls-1" d="m819.74,360.8c-6.17,0-29.55,35.88-23.26,35.88,19.56,0-7.59-48.84-.34-48.84,6.33,0,17.44,35.17,23.61,35.17,7.4,0,15.05-35.17,22.22-35.17,6.16,0-18.52,49.18.34,49.18,6.25,0-16.39-36.22-22.56-36.22Z"/>
  <path class="cls-1" d="m248.22,484.12c-2.86,1.15-12.7-1.54-18.65-4.73-5.37-2.87-9.89-7.39-7.24-8.59,2.61-1.19,11.94.95,17.78,3.73,6.83,3.26,11,8.42,8.1,9.59Z"/>
  <ellipse class="cls-1" cx="98.88" cy="456.58" rx="26.8" ry="20.74" transform="translate(-337.18 288.96) rotate(-56.75)"/>
  <ellipse class="cls-1" cx="229.46" cy="456.58" rx="26.8" ry="20.74" transform="translate(-278.19 398.16) rotate(-56.75)"/>
  <ellipse class="cls-1" cx="104.2" cy="456.58" rx="26.8" ry="20.74" transform="translate(-334.77 293.41) rotate(-56.75)"/>
  <path class="cls-1" d="m155.83,434.17c14.94-4.92,26.83-2.68,26.22,12.28-.94,22.93-30.82,10.67-33.12,9.03-2.05-1.47,1.67,4.39,4.6,10.65,2.3,4.92,3.51,12.04-1.15,14.36-5.75,2.85-4.6-6.16-4.18-27.2.25-12.57-2.22-15.88,7.62-19.12Z"/>
  <path class="cls-1" d="m297.32,431.83c-34.34.46-16.45,49.01,16.45,49.15,7.58.03-4.5-5.48-9.87-9.16-6-4.11-14.43-9.91-19.45-13.79-10.73-8.27-18.21-31.27-9.39-18.38,10.06,14.71-4.03,41.36,6.04,41.36,32.87,0,49.49-49.62,16.23-49.18Z"/>
  <path class="cls-1" d="m492.2,481.44c28.08,0,28.08-50.58,19.71-50.58-12.09,0,8.32,49.53.3,49.53-6.1,0-13.18-16.91-19.48-16.91s-16.53,9.19-17.31,8.27c-8.48-9.91,9.44-41.24-3.23-41.24-7.78,0-7.78,50.93,20.01,50.93Z"/>
  <path class="cls-1" d="m336.89,479.29c-.24.05-.19.42.05.41,38.81-1.04,48.48-1.59,49.02-5.42.27-1.9-3.64-6.1-26.39-13.45-15.84-5.12-23.17-9.09-23.08-12.79.22-10.06,52.89-15.57,48.08-15.77-84.33-3.42-34.93,13.9-20.37,19.45,22.55,8.6,43.85,14.07-27.31,27.57Z"/>
  <path class="cls-1" d="m427.22,481.44c-7.61,0-8.8-49.58,0-49.58,10.31,0,26.09-.56,26.09,2.49,0,4.61-19.5,6.06-26.09,6.06-8.78,0-26.19-1.45-26.19-5.39,0-3.58,16.19-3.17,26.19-3.17,8.74,0,7.92,49.58,0,49.58Z"/>
  <path class="cls-1" d="m532.6,430.68c3.23-3.33,12.55,50.52,27.49,50.69,14.92.17,26.2-48.02,23.61-50.69-3.4-3.5-14.54,50.68-29.76,50.69-15.36,0-24.58-47.35-21.35-50.69Z"/>
  <path class="cls-1" d="m623.89,481.44c32.2,0,32.19-50.58,22.6-50.58-13.87,0,9.54,49.53.34,49.53-6.99,0-15.11-40.81-22.33-40.81s-17.14,40.44-24.36,40.44c-8.12,0,15.34-49.51.8-49.51-8.92,0-8.92,50.92,22.94,50.92Z"/>
  <path class="cls-1" d="m689.44,448.96c-15.88.05-29.25,28.81-23.58,31.96,6.68,3.71,40.94-53.55,47.51-49.88,5.6,3.12-7.91,31.96-23.93,31.96-16.09,0-29.58-29.18-23.93-32.32,6.65-3.69,41.23,54.27,47.87,50.59,5.64-3.13-7.96-32.36-23.93-32.32Z"/>
  <path class="cls-1" d="m753.61,481.44c-7.09,0-6.94-28.81,0-35.41,6.2-5.9,18.4-17.5,21.06-14.97,4.18,3.98-15.75,25.93-21.06,25.93-7.09,0-25.36-22.23-21.14-26.24,2.1-1.99,14.94,9.38,21.14,15.28,6.94,6.6,7.09,35.41,0,35.41Z"/>
  <path class="cls-1" d="m844.83,478.11c.24.04.22.39-.02.4-38.8,1.53-48.99-.95-49.35-3.33-.28-1.83,3.25-6.09,25.5-14.63,15.49-5.94,22.55-10.23,22.24-13.77-.85-9.64-55.28-14.37-50.47-14.54,82.26-2.92,41.45,8.52,24.21,17.17-20.18,10.13-49.52,16.61,27.91,28.7Z"/>
  <path class="cls-1" d="m11.39,480.18c-.05.23-.4.19-.39-.05.99-38.05,4.1-47.86,6.48-48.06,1.83-.15,5.82,3.57,12.83,25.87,4.88,15.53,8.66,22.71,12.19,22.63,9.59-.22,17.79-53.16,17.65-48.44-2.42,80.65-9.48,41.48-18.55,22.58-9.6-19.99-13.24-49.49-30.21,25.46Z"/>
  <path class="cls-1" d="m277.79,372.16c0,23.6,41.87,13.01,41.87,19.67,0,3.93-41.2,9.8-41.01-.88.37-19.97,32.38-27.17,28.29-18.71-2.28,4.7-28.57-.09-28.57-19.75,0-7.29,37.77-4.94,37.77-.3,0,5.94-38.34-5.82-38.34,19.96Z"/>
  <path class="cls-1" d="m344.48,368.63c5.22,9.09,8.48,13.68,6.53,23.39-1.31,6.5-7.26,7.7-7.06-2.6.37-19.25,32.38-26.2,28.29-18.04-2.28,4.53-28.57-.09-28.57-19.04,0-7.03,37.77-4.76,37.77-.29,0,5.73-49.34-5-36.94,16.58Z"/>
  <path class="cls-1" d="m557.46,373.45c0,20.6.27,25.78-6.26,22.8-6.12-2.8,24.14-2.64,17.58,0-6.69,2.69-7.24-2.19-7.24-22.8s.57-26.39,7.24-23.67c5.37,2.19-24.33,3.11-17.58,0,5.65-2.61,6.26,3.07,6.26,23.67Z"/>
  <path class="cls-1" d="m680.84,371.84c0-11.03,25.32-28.53,27.92-22.71,3.06,6.84-25.94,47.77-31.18,47.77-4.57,0-6.53-8.1-6.53-24.53,0-16.48,1.96-24.53,6.53-24.53,7.56,0,27.3,54.89,31.47,48.69,17.49-25.98-28.21-13.68-28.21-24.69Z"/>
  <path class="cls-1" d="m254.59,377.11c-.47,8.89-4.1,19.79-22.11,20.32-9.85.29-11.69-2.11-13.48-6.59-.91-2.27-1.41-9.96-1.41-18.21v-15.21c0-6.26-1.01-9.58,10.95-9.58,13.48,0,25.6,7.87,26.06,20.27.58,15.46-6.52,25.43-22.11,25.43s-18.79,1.47-18.79-19.11v-13.42c0-8.05,4.42-8.35,16.06-8.05,13.48.34,25.65,8.84,24.85,24.16Z"/>
</svg>