<?xml version="1.0" encoding="UTF-8"?>
<svg id="Layer_2" data-name="Layer 2" xmlns="http://www.w3.org/2000/svg" viewBox="0 0 580 580">
  <defs>
    <style>
      .cls-1 {
        stroke-width: 4px;
      }

      .cls-1, .cls-2 {
        fill: none;
        stroke: #000;
        stroke-miterlimit: 10;
      }
    </style>
  </defs>
  <g id="Layer_1-2" data-name="Layer 1">
    <path class="cls-1" d="m2,290.5c0-27,27-72,72-72s71.5,36,71.5,71.5,27.5,72.5,73.5,72.5,72-36,72-73c0-35,26-72,72-72s70,27,70,73,38,71,73,71,72-26,72-71"/>
    <path class="cls-1" d="m289.5,2c27,0,72,27,72,72s-36,71.5-71.5,71.5-72.5,27.5-72.5,73.5,36,72,73,72c35,0,72,26,72,72s-27,70-73,70c-45,0-71,38-71,73,0,36,26,72,71,72"/>
    <path class="cls-2" d="m86,86.71c19.09-19.09,70-31.82,101.82,0s25.1,76.02,0,101.12c-25.81,25.81-31.82,70.71.71,103.24,31.11,31.11,76.37,25.46,102.53-.71,24.75-24.75,69.3-32.53,101.82,0,31.82,31.82,30.41,68.59-2.12,101.12s-23.34,77.07,1.41,101.82c25.46,25.46,69.3,32.53,101.12.71"/>
    <path class="cls-2" d="m493.29,86c19.09,19.09,31.82,70,0,101.82-32.53,32.53-76.02,25.1-101.12,0-25.81-25.81-70.71-31.82-103.24.71-31.11,31.11-25.46,76.37.71,102.53,24.75,24.75,32.53,69.3,0,101.82-31.82,31.82-68.59,30.41-101.12-2.12s-77.07-23.34-101.82,1.41c-25.46,25.46-32.53,69.3-.71,101.12"/>
  </g>
</svg>