<svg xmlns="http://www.w3.org/2000/svg" viewBox="0 0 1053.5 1053.5">
  <defs>
    <style>
      .cls-1 {
        fill: #fff0;
      }

      .cls-1, .cls-3 {
        stroke-miterlimit: 10;
      }

      .cls-2 {
        fill: #ddd;
      }

      .cls-3 {
        fill: #ddd;
        stroke: #222;
        stroke-width: 16px;
      }
    </style>
  </defs>
  <g id="bg">
    <rect id="color" class="cls-1" x="12.5" y="12.5" width="1028.5" height="1028.5"/>
  </g>
  <g id="color-2" data-name="color">
    <g>
      <path class="cls-2" d="M6705.59,990c-13.52,0-33.47-4.45-51.68-25.63-13.88-16.16-23.31-37.86-28-64.53-5.55-31.36-7.63-80.9-6.36-151.45l2.81-154.09c4-213.48-.23-286.83-4.47-310.77-3.34-18.9-9.58-18.9-16.8-18.9a56,56,0,0,0-9.58.94c-33.45,5.92-61.86,24-86.84,55.18-26.21,32.76-44.42,75.31-54.11,126.45-12.24,66.16-11,141.66,3.64,224.42,3.72,21,10.19,48.57,19.24,81.88,3.1,11.42,1,23.43-5.69,32.14a31.6,31.6,0,0,1-25.26,12.59,32.38,32.38,0,0,1-26.8-14.42c-22.61-32.68-38.86-78.28-49.68-139.4-11.18-63.17-12.14-124.66-2.84-182.75,9.4-58.79,28.94-112,58-158.11,25.34-40.24,54-71.24,85.25-92.13s70.86-35.68,117.92-44a349,349,0,0,1,57.29-5.71h.28c17.83,0,32.27,14.59,33.58,33.93,6.46,95.41,7.43,236.47,2.88,419.29-2.53,102.36-3.82,167.66-3.83,194.07,0,24.78,1.14,43.91,3.43,56.86,2.18,12.27,4.71,19.32,6.53,23.16,6.85-5.28,22.78-21.24,49.51-68l.05-.09c24.93-43.24,43.52-79.36,55.33-107.47-.61-40.23-2.44-95.89-5.46-165.55-4.05-88.57-4.48-159.32-1.27-210.21,3.29-52.13,11.44-99.62,24.22-141.16,13.36-43.09,36.39-101.22,82.15-109.32a51.31,51.31,0,0,1,8.87-.79c11.28,0,32.5,4.12,48,31.72,7.89,14,13.91,33.24,18.42,58.71,11.06,62.49,9.68,136.72-4.12,220.65-13.53,82.34-39.44,176.66-77,280.33l-3.31,9.49c.41,45-.87,89.43-3.8,132.61,7-.67,14.66-1.28,23-1.82,26.38-1.67,32.85-2.58,34.2-2.82C6992,812,7002.5,784.47,7008,762c10.1-41.27,9.92-92.14-.54-151.19-.85-4.82-2.17-11.59-3.92-20.12-2.3-11.19.22-22.31,6.9-30.51a31.74,31.74,0,0,1,24.65-11.79c11.41,0,21.89,6.11,28,16.35,9.18,15.28,15.67,34.2,19.85,57.83,10,56.49,6.75,116.34-9.69,177.87-10.16,38.12-22.9,67.32-38.95,89.25-18.34,25.05-40.84,40.09-66.89,44.7a161,161,0,0,1-28.1,2.17h0c-4.74,0-9.81-.14-15.09-.43-14.89-.72-27.58-1.08-37.7-1.08a188.88,188.88,0,0,0-20.24.79,32.72,32.72,0,0,1-3.57.2,32.15,32.15,0,0,1-23.14-9.9,38.47,38.47,0,0,1-10.52-27.78q.24-8.88.42-17.49a502.66,502.66,0,0,1-34,47.4c-30.67,37.84-54.87,56.57-78.49,60.75A65.13,65.13,0,0,1,6705.59,990Zm218.65-760.48c-1,6.32-2,13.39-3,21.28-4.63,36.83-7.16,78.09-7.54,122.65q-.2,24.57.35,61.37,2.08-12.87,3.92-26C6927.78,338.39,6929.88,278.21,6924.24,229.53Z" transform="translate(-6306.5 12.75)"/>
      <path class="cls-3" d="M6705.59,990c-13.52,0-33.47-4.45-51.68-25.63-13.88-16.16-23.31-37.86-28-64.53-5.55-31.36-7.63-80.9-6.36-151.45l2.81-154.09c4-213.48-.23-286.83-4.47-310.77-3.34-18.9-9.58-18.9-16.8-18.9a56,56,0,0,0-9.58.94c-33.45,5.92-61.86,24-86.84,55.18-26.21,32.76-44.42,75.31-54.11,126.45-12.24,66.16-11,141.66,3.64,224.42,3.72,21,10.19,48.57,19.24,81.88,3.1,11.42,1,23.43-5.69,32.14a31.6,31.6,0,0,1-25.26,12.59,32.38,32.38,0,0,1-26.8-14.42c-22.61-32.68-38.86-78.28-49.68-139.4-11.18-63.17-12.14-124.66-2.84-182.75,9.4-58.79,28.94-112,58-158.11,25.34-40.24,54-71.24,85.25-92.13s70.86-35.68,117.92-44a349,349,0,0,1,57.29-5.71h.28c17.83,0,32.27,14.59,33.58,33.93,6.46,95.41,7.43,236.47,2.88,419.29-2.53,102.36-3.82,167.66-3.83,194.07,0,24.78,1.14,43.91,3.43,56.86,2.18,12.27,4.71,19.32,6.53,23.16,6.85-5.28,22.78-21.24,49.51-68l.05-.09c24.93-43.24,43.52-79.36,55.33-107.47-.61-40.23-2.44-95.89-5.46-165.55-4.05-88.57-4.48-159.32-1.27-210.21,3.29-52.13,11.44-99.62,24.22-141.16,13.36-43.09,36.39-101.22,82.15-109.32a51.31,51.31,0,0,1,8.87-.79c11.28,0,32.5,4.12,48,31.72,7.89,14,13.91,33.24,18.42,58.71,11.06,62.49,9.68,136.72-4.12,220.65-13.53,82.34-39.44,176.66-77,280.33l-3.31,9.49c.41,45-.87,89.43-3.8,132.61,7-.67,14.66-1.28,23-1.82,26.38-1.67,32.85-2.58,34.2-2.82C6992,812,7002.5,784.47,7008,762c10.1-41.27,9.92-92.14-.54-151.19-.85-4.82-2.17-11.59-3.92-20.12-2.3-11.19.22-22.31,6.9-30.51a31.74,31.74,0,0,1,24.65-11.79c11.41,0,21.89,6.11,28,16.35,9.18,15.28,15.67,34.2,19.85,57.83,10,56.49,6.75,116.34-9.69,177.87-10.16,38.12-22.9,67.32-38.95,89.25-18.34,25.05-40.84,40.09-66.89,44.7a161,161,0,0,1-28.1,2.17h0c-4.74,0-9.81-.14-15.09-.43-14.89-.72-27.58-1.08-37.7-1.08a188.88,188.88,0,0,0-20.24.79,32.72,32.72,0,0,1-3.57.2,32.15,32.15,0,0,1-23.14-9.9,38.47,38.47,0,0,1-10.52-27.78q.24-8.88.42-17.49a502.66,502.66,0,0,1-34,47.4c-30.67,37.84-54.87,56.57-78.49,60.75A65.13,65.13,0,0,1,6705.59,990Zm218.65-760.48c-1,6.32-2,13.39-3,21.28-4.63,36.83-7.16,78.09-7.54,122.65q-.2,24.57.35,61.37,2.08-12.87,3.92-26C6927.78,338.39,6929.88,278.21,6924.24,229.53Z" transform="translate(-6306.5 12.75)"/>
    </g>
    <g>
      <path class="cls-2" d="M6739.53,1002.72a427,427,0,0,1-78.83-7.45c-50.86-9.58-95.34-27.13-132.2-52.16-56.52-38.54-91.54-94-104.09-164.88-12.52-70.68,5.86-135.53,54.62-192.77,47.79-56.1,114-92,196.89-106.65a543.93,543.93,0,0,1,94.52-8.08c103.53,0,219.66,27.71,345.15,82.38a23.1,23.1,0,0,1,6.49,38.33l-38,35.13a24.41,24.41,0,0,1-26.66,4.25c-64-29.43-135.54-51.15-212.5-64.56-45.68-8-87.7-12-124.88-12a412.55,412.55,0,0,0-71.46,5.77c-56.18,10-100.32,32.77-131.18,67.83-30.13,34.22-41.09,71.72-33.49,114.63,5,28.38,17.52,55.81,37.15,81.51a231.75,231.75,0,0,0,74.8,63.44c25.37,13.83,58.82,23.21,99.42,27.88a440.38,440.38,0,0,0,50.16,2.92,405.42,405.42,0,0,0,70.45-6.12c128.31-22.72,229.49-104.38,300.72-242.71,22.49-44.17,42.45-95.26,59.34-151.89l3.77-12.66-11.21,7a68.38,68.38,0,0,1-24.37,9.48,79.2,79.2,0,0,1-13.8,1.25,66.56,66.56,0,0,1-41.57-14.22c-15.33-11.83-25.07-28.89-28.93-50.73l-.06-.35a23.13,23.13,0,0,1,5.14-18.58,24.65,24.65,0,0,1,18.7-8.65,24,24,0,0,1,15.63,5.77c9.69,8.31,23.85,18.22,36.33,18.22a23,23,0,0,0,3.92-.34c16.93-3,21.17-9.12,18.15-26.2-.69-3.84-6-18.28-45.61-42.54-46.37-28.34-74.08-66.45-82.37-113.27-8.94-50.48,2.56-98,34.17-141.31,31.42-43,73.63-69.48,125.46-78.67l41.51-6.46,37.79-5.81c6.5-1.16,12.09-2.23,16.6-3.18a24.73,24.73,0,0,1,5.07-.53,23.94,23.94,0,0,1,15.62,5.75A23,23,0,0,1,7314,59l0,11.67c-1.91,107.2-9.68,200-23.08,275.75-13.48,76.16-35.91,152.64-66.66,227.33-50.75,124-110.83,222.35-178.57,292.3-69,71.19-147.71,115.05-234.08,130.34A414.29,414.29,0,0,1,6739.53,1002.72Zm425.18-860.95a129.54,129.54,0,0,0-32.86,10.39c-14.81,7.08-25.52,17-32.75,30.25a60,60,0,0,0-6.7,40.64,77.25,77.25,0,0,0,18.66,38.21c11.11,12.54,30.56,27.7,57.8,45.06,15.68,10,27.73,19.87,36.85,30.27l7.51,8.56,1.22-11.32c1.92-17.8,3.15-35.13,3.66-51.5l2.94-99.88,1.41-50.47-6.23,1.35c-3.32.72-6.59,1.37-9.72,1.92Z" transform="translate(-6306.5 12.75)"/>
      <path class="cls-3" d="M6739.53,1002.72a427,427,0,0,1-78.83-7.45c-50.86-9.58-95.34-27.13-132.2-52.16-56.52-38.54-91.54-94-104.09-164.88-12.52-70.68,5.86-135.53,54.62-192.77,47.79-56.1,114-92,196.89-106.65a543.93,543.93,0,0,1,94.52-8.08c103.53,0,219.66,27.71,345.15,82.38a23.1,23.1,0,0,1,6.49,38.33l-38,35.13a24.41,24.41,0,0,1-26.66,4.25c-64-29.43-135.54-51.15-212.5-64.56-45.68-8-87.7-12-124.88-12a412.55,412.55,0,0,0-71.46,5.77c-56.18,10-100.32,32.77-131.18,67.83-30.13,34.22-41.09,71.72-33.49,114.63,5,28.38,17.52,55.81,37.15,81.51a231.75,231.75,0,0,0,74.8,63.44c25.37,13.83,58.82,23.21,99.42,27.88a440.38,440.38,0,0,0,50.16,2.92,405.42,405.42,0,0,0,70.45-6.12c128.31-22.72,229.49-104.38,300.72-242.71,22.49-44.17,42.45-95.26,59.34-151.89l3.77-12.66-11.21,7a68.38,68.38,0,0,1-24.37,9.48,79.2,79.2,0,0,1-13.8,1.25,66.56,66.56,0,0,1-41.57-14.22c-15.33-11.83-25.07-28.89-28.93-50.73l-.06-.35a23.13,23.13,0,0,1,5.14-18.58,24.65,24.65,0,0,1,18.7-8.65,24,24,0,0,1,15.63,5.77c9.69,8.31,23.85,18.22,36.33,18.22a23,23,0,0,0,3.92-.34c16.93-3,21.17-9.12,18.15-26.2-.69-3.84-6-18.28-45.61-42.54-46.37-28.34-74.08-66.45-82.37-113.27-8.94-50.48,2.56-98,34.17-141.31,31.42-43,73.63-69.48,125.46-78.67l41.51-6.46,37.79-5.81c6.5-1.16,12.09-2.23,16.6-3.18a24.73,24.73,0,0,1,5.07-.53,23.94,23.94,0,0,1,15.62,5.75A23,23,0,0,1,7314,59l0,11.67c-1.91,107.2-9.68,200-23.08,275.75-13.48,76.16-35.91,152.64-66.66,227.33-50.75,124-110.83,222.35-178.57,292.3-69,71.19-147.71,115.05-234.08,130.34A414.29,414.29,0,0,1,6739.53,1002.72Zm425.18-860.95a129.54,129.54,0,0,0-32.86,10.39c-14.81,7.08-25.52,17-32.75,30.25a60,60,0,0,0-6.7,40.64,77.25,77.25,0,0,0,18.66,38.21c11.11,12.54,30.56,27.7,57.8,45.06,15.68,10,27.73,19.87,36.85,30.27l7.51,8.56,1.22-11.32c1.92-17.8,3.15-35.13,3.66-51.5l2.94-99.88,1.41-50.47-6.23,1.35c-3.32.72-6.59,1.37-9.72,1.92Z" transform="translate(-6306.5 12.75)"/>
    </g>
  </g>
</svg>
