<?xml version="1.0" encoding="UTF-8"?>
<svg id="Layer_2" data-name="Layer 2" xmlns="http://www.w3.org/2000/svg" viewBox="0 0 135.75 135.75">
  <defs>
    <style>
      .cls-1 {
        stroke-width: 0px;
      }
    </style>
  </defs>
  <g id="Layer_1-2" data-name="Layer 1">
    <path class="cls-1" d="M39.76,58.23c10.09,0,19.57,3.93,26.7,11.06,14.72,14.72,14.72,38.68,0,53.4-7.13,7.13-16.61,11.06-26.7,11.06s-19.57-3.93-26.7-11.06c-14.72-14.72-14.72-38.68,0-53.4,7.13-7.13,16.61-11.06,26.7-11.06M39.76,56.23c-10.18,0-20.35,3.88-28.11,11.65-15.53,15.53-15.53,40.7,0,56.23,7.76,7.76,17.94,11.65,28.11,11.65s20.35-3.88,28.11-11.65c15.53-15.53,15.53-40.7,0-56.23-7.76-7.76-17.94-11.65-28.11-11.65h0Z"/>
    <path class="cls-1" d="M95.99,2c10.09,0,19.57,3.93,26.7,11.06,7.13,7.13,11.06,16.61,11.06,26.7s-3.93,19.57-11.06,26.7-16.61,11.06-26.7,11.06-19.57-3.93-26.7-11.06c-7.13-7.13-11.06-16.61-11.06-26.7s3.93-19.57,11.06-26.7c7.13-7.13,16.61-11.06,26.7-11.06M95.99,0c-10.18,0-20.35,3.88-28.11,11.65-15.53,15.53-15.53,40.7,0,56.23,7.76,7.76,17.94,11.65,28.11,11.65s20.35-3.88,28.11-11.65c15.53-15.53,15.53-40.7,0-56.23C116.34,3.88,106.16,0,95.99,0h0Z"/>
    <path class="cls-1" d="M95.99,58.23c10.09,0,19.57,3.93,26.7,11.06,14.72,14.72,14.72,38.68,0,53.4-7.13,7.13-16.61,11.06-26.7,11.06s-19.57-3.93-26.7-11.06c-14.72-14.72-14.72-38.68,0-53.4,7.13-7.13,16.61-11.06,26.7-11.06M95.99,56.23c-10.18,0-20.35,3.88-28.11,11.65-15.53,15.53-15.53,40.7,0,56.23,7.76,7.76,17.94,11.65,28.11,11.65s20.35-3.88,28.11-11.65c15.53-15.53,15.53-40.7,0-56.23-7.76-7.76-17.94-11.65-28.11-11.65h0Z"/>
    <path class="cls-1" d="M39.76,2c10.09,0,19.57,3.93,26.7,11.06,7.13,7.13,11.06,16.61,11.06,26.7s-3.93,19.57-11.06,26.7-16.61,11.06-26.7,11.06-19.57-3.93-26.7-11.06c-7.13-7.13-11.06-16.61-11.06-26.7s3.93-19.57,11.06-26.7C20.19,5.93,29.67,2,39.76,2M39.76,0c-10.18,0-20.35,3.88-28.11,11.65-15.53,15.53-15.53,40.7,0,56.23,7.76,7.76,17.94,11.65,28.11,11.65s20.35-3.88,28.11-11.65c15.53-15.53,15.53-40.7,0-56.23C60.11,3.88,49.93,0,39.76,0h0Z"/>
  </g>
</svg>