<?xml version="1.0" encoding="UTF-8"?>
<svg id="Layer_2" data-name="Layer 2" xmlns="http://www.w3.org/2000/svg" viewBox="0 0 216 110.59">
  <defs>
    <style>
      .cls-1, .cls-2 {
        stroke-width: 0px;
      }

      .cls-2 {
        fill: #90f;
      }
    </style>
  </defs>
  <g id="Layer_1-2" data-name="Layer 1">
    <rect class="cls-1" x="10.7" y="28.68" width="6.68" height="5.08"/>
    <rect class="cls-1" x="27.58" y="28.68" width="32.06" height="5.08"/>
    <rect class="cls-1" x="69.78" y="28.68" width="9.73" height="5.08"/>
    <path class="cls-1" d="M129.67,28.68c-.42,0-.85.06-1.31.12-3.09.24-6.13.54-9.18.97-3,.36-5.75.97-8.29,1.75-1.9.61-3.51,1.33-4.82,2.3h-16.41v-5.08h40.01v-.06Z"/>
    <path class="cls-1" d="M142.57,32.49c1.48-.24,2.41-.54,2.83-.85v2.06h-16.2c.85-.06,1.82-.12,2.88-.18,1.78-.12,3.59-.3,5.46-.42,1.95-.18,3.59-.36,5.03-.61Z"/>
    <rect class="cls-1" x="155.6" y="28.68" width="5.2" height="5.08"/>
    <rect class="cls-1" x="170.99" y="28.68" width="32.06" height="5.08"/>
    <path class="cls-1" d="M9.65,92.75H1.99v-5.08h3.98c.51,1.75,1.56,3.33,3.21,4.72.17.12.34.24.47.36Z"/>
    <path class="cls-1" d="M52.41,87.66c-.34.97-.93,1.82-1.69,2.6-.97.97-2.24,1.82-3.85,2.48h-25.04c-1.73-.73-3.13-1.57-4.14-2.6-.72-.73-1.27-1.57-1.61-2.42h36.33v-.06Z"/>
    <rect class="cls-1" x="62.6" y="87.66" width="5.24" height="5.08"/>
    <rect class="cls-1" x="78.04" y="87.66" width="6.64" height="5.08"/>
    <path class="cls-1" d="M132.98,90.75c0,.67-.04,1.33-.13,2h-38.02c-.08-.67-.13-1.27-.13-2,0-1.09.08-2.12.3-3.09h37.64c.21,1.03.34,2,.34,3.09Z"/>
    <path class="cls-1" d="M145.33,87.66v5.08h-2.28c.04-.61.08-1.21.08-1.88,0-1.09-.08-2.18-.3-3.15h2.5v-.06Z"/>
    <path class="cls-1" d="M157.68,91.05c0,.61.04,1.15.08,1.69h-2.24v-5.08h2.5c-.21,1.09-.34,2.24-.34,3.39Z"/>
    <path class="cls-1" d="M157.76,92.75h10.11c.13,2.54,1.02,4.72,2.58,6.53,1.73,2,4.19,3.51,7.27,4.54,3.09,1.03,6.72,1.51,10.83,1.51,2.66,0,5.08-.24,7.23-.67,2.2-.42,4.06-1.09,5.63-2s2.79-2,3.68-3.33l9.81,1.57c-1.02,1.94-2.75,3.63-5.2,5.08-2.45,1.45-5.46,2.54-9.05,3.39-3.59.79-7.61,1.21-12.1,1.21-6.39,0-11.88-.79-16.49-2.42-4.61-1.63-8.16-3.93-10.66-6.84-2.11-2.54-3.34-5.38-3.64-8.59Z"/>
    <path class="cls-1" d="M215.96,92.75h-48.09c0-.24-.04-.54-.04-.79v-3.39c0-.3,0-.61.04-.91h37.68c0-2.18-.76-4.05-2.24-5.75s-3.55-3.03-6.3-3.99c-2.71-.97-5.88-1.45-9.56-1.45-4.06,0-7.57.54-10.53,1.75-2.92,1.15-5.2,2.6-6.77,4.48-1.35,1.57-2.11,3.27-2.33,5.02h-9.81c.51-2.54,1.65-4.84,3.38-6.96,2.5-3.03,5.96-5.32,10.45-7.02,4.48-1.69,9.73-2.54,15.69-2.54,3.47,0,6.85.3,10.24.97,3.38.67,6.43,1.75,9.18,3.21,2.75,1.45,4.95,3.45,6.6,5.87,1.65,2.42,2.45,5.45,2.45,9.02v2.48h-.04Z"/>
    <rect class="cls-1" x="145.33" y="58.98" width="10.15" height="28.68"/>
    <rect class="cls-1" x="145.33" y="92.75" width="10.15" height="17.06"/>
    <path class="cls-1" d="M132.81,92.75c-.3,1.94-.97,3.75-2.07,5.45-1.44,2.18-3.59,3.93-6.47,5.26-2.83,1.27-6.39,1.94-10.66,1.94s-7.53-.61-10.32-1.82c-2.83-1.27-4.95-2.96-6.43-5.14-1.1-1.69-1.82-3.57-2.07-5.63h-10.11v17.06h9.81v-5.87h1.23c.76.67,1.82,1.57,3.17,2.6,1.4,1.03,3.34,2,5.92,2.78,2.54.79,5.96,1.21,10.19,1.21,5.5,0,10.4-.79,14.59-2.42,4.23-1.63,7.53-3.93,9.9-6.84,1.99-2.48,3.17-5.38,3.47-8.59h-10.15ZM139.53,80.46c-2.37-2.96-5.71-5.2-9.94-6.84-4.23-1.57-9.18-2.42-14.72-2.42-4.31,0-7.74.42-10.28,1.21-2.5.79-4.44,1.75-5.79,2.78-1.31,1.03-2.37,1.88-3.09,2.54h-.85v-18.76h-10.15v28.68h10.28c.34-1.63.97-3.09,1.86-4.42,1.44-2.18,3.55-3.81,6.39-5.02,2.83-1.21,6.3-1.82,10.45-1.82s7.91.61,10.74,1.88c2.88,1.27,5.03,2.96,6.43,5.14.89,1.27,1.48,2.66,1.82,4.17h10.24c-.55-2.6-1.65-5.02-3.38-7.14Z"/>
    <rect class="cls-1" x="67.85" y="71.69" width="10.15" height="15.97"/>
    <rect class="cls-1" x="67.85" y="92.75" width="10.15" height="17.06"/>
    <rect class="cls-1" x="160.8" y="33.76" width="10.19" height="17.06"/>
    <path class="cls-1" d="M213.24,26.62v2.12h-10.19v-1.69c0-3.03-1.35-5.32-4.06-7.02-2.71-1.69-6.43-2.54-11.12-2.54-3.26,0-6.13.42-8.71,1.21-2.54.79-4.53,2-6.01,3.57-1.48,1.57-2.2,3.45-2.2,5.63v.79h-10.19v-15.97h9.81v5.93h.85c1.56-1.94,3.89-3.51,7.06-4.66,3.17-1.21,7.23-1.82,12.22-1.82,4.48,0,8.42.54,11.76,1.57s5.96,2.6,7.82,4.78c1.99,2.18,2.96,4.84,2.96,8.11Z"/>
    <rect class="cls-1" x="203.05" y="33.76" width="10.19" height="17.06"/>
    <path class="cls-1" d="M145.41,33.76v3.27c0,1.57-.72,3.09-2.16,4.54-1.4,1.45-3.51,2.6-6.3,3.51-2.75.91-6.13,1.33-10.15,1.33s-7.4-.48-10.07-1.51c-2.62-1.03-3.93-2.6-3.93-4.6,0-1.51.68-2.66,2.07-3.51,1.4-.91,3.26-1.51,5.5-1.94,2.28-.42,4.78-.79,7.4-.97.42,0,.85-.06,1.35-.12h-23.13c-.42.3-.8.61-1.18.97-1.48,1.33-2.24,3.15-2.24,5.32,0,2.48,1.02,4.6,3,6.35,2.03,1.75,4.74,3.09,8.16,3.99s7.23,1.39,11.42,1.39c3.85,0,7.11-.3,9.77-.97,2.66-.67,4.82-1.45,6.43-2.42,1.61-.97,2.75-1.82,3.47-2.66h.51v5.14h10.19v-17.12h-10.11ZM153.02,18.45c-1.73-1.82-3.89-3.15-6.51-4.05-2.58-.91-5.29-1.45-8.08-1.75-2.75-.3-5.2-.42-7.32-.42-3.34,0-6.72.24-10.19.79-3.43.48-6.6,1.39-9.47,2.72-2.88,1.27-5.16,3.09-6.89,5.38l9.64,2c1.1-1.39,3.05-2.72,5.84-3.93,2.75-1.21,6.56-1.82,11.42-1.82s8.16.67,10.49,2.06c2.33,1.33,3.47,3.27,3.47,5.69v.18c0,.97-.59,1.63-1.78,2-1.14.36-3,.67-5.5.79-2.2.12-5.03.3-8.46.61h25.93v-2.96c0-3.03-.85-5.45-2.58-7.26Z"/>
    <path class="cls-1" d="M69.53,12.71v4.96h34.3v-4.96h-34.3ZM79.51,3.57v25.11h10.15V3.57h-10.15ZM102.98,45.38c-.42.06-1.02.12-1.73.18-.72.06-1.65.12-2.75.12-1.48,0-2.92-.12-4.27-.36-1.31-.3-2.41-.85-3.26-1.63-.85-.85-1.27-2.06-1.27-3.75v-6.17h-10.15v7.74c0,2.24.89,4.05,2.66,5.51,1.82,1.45,4.06,2.54,6.81,3.27,2.75.73,5.58,1.09,8.46,1.09,1.9,0,3.47-.06,4.69-.24,1.23-.12,2.2-.3,2.88-.42l-2.07-5.32Z"/>
    <rect class="cls-1" x="17.38" y="33.76" width="10.15" height="17.06"/>
    <path class="cls-1" d="M69.78,26.62v2.12h-10.15v-1.69c0-3.03-1.35-5.32-4.06-7.02-2.71-1.69-6.39-2.54-11.12-2.54-3.26,0-6.13.42-8.71,1.21-2.54.79-4.53,2-6.01,3.57-1.48,1.57-2.2,3.45-2.2,5.63v.79h-10.15v-15.97h9.81v5.93h.85c1.56-1.94,3.89-3.51,7.06-4.66,3.17-1.21,7.23-1.82,12.22-1.82,4.48,0,8.42.54,11.76,1.57,3.38,1.03,5.96,2.6,7.82,4.78,1.95,2.18,2.88,4.84,2.88,8.11Z"/>
    <rect class="cls-1" x="59.63" y="33.76" width="10.15" height="17.06"/>
    <rect class="cls-1" width="10.7" height="28.68"/>
    <rect class="cls-1" y="33.76" width="10.7" height="17.06"/>
    <path class="cls-1" d="M53.04,71.75v4.3h-1.02c-.72-.48-1.78-1.09-3.09-1.82s-3.21-1.39-5.71-2c-2.45-.61-5.79-.91-9.98-.91-5.41,0-10.24.54-14.38,1.69-4.14,1.15-7.36,2.72-9.69,4.78s-3.47,4.48-3.47,7.26c0,.85.13,1.69.34,2.48h10.07c-.34-.79-.47-1.63-.47-2.54,0-1.82.68-3.51,2.07-5.02,1.4-1.51,3.47-2.72,6.26-3.63s6.3-1.33,10.49-1.33,7.4.42,10.15,1.27,4.82,2,6.22,3.51,2.11,3.21,2.11,5.14c0,.91-.17,1.75-.47,2.54h10.19v-15.73h-9.64ZM46.87,92.75c-.72.3-1.52.61-2.41.85-2.75.79-6.09,1.15-10.07,1.15s-7.61-.42-10.4-1.21c-.76-.24-1.48-.48-2.16-.79h-12.14c2.37,1.82,5.5,3.21,9.35,4.17,4.14,1.03,8.84,1.57,14.04,1.57,4.19,0,7.53-.3,9.98-.85,2.5-.54,4.4-1.21,5.71-1.94,1.35-.73,2.37-1.33,3.13-1.82h.85v5.51c0,2.24-1.69,3.93-5.08,4.96-3.38,1.09-7.7,1.57-12.9,1.57-3.89,0-7.02-.24-9.43-.73-2.37-.48-4.27-1.03-5.63-1.69-1.35-.61-2.5-1.21-3.38-1.69l-7.91,2.36c1.35.97,3.17,1.82,5.41,2.66,2.28.85,5.16,1.51,8.59,2,3.47.54,7.57.79,12.35.79,5.16,0,9.81-.36,14.04-1.03s7.57-1.75,10.07-3.21c2.54-1.45,3.76-3.33,3.76-5.69v-6.96h-15.78Z"/>
    <path class="cls-2" d="M67.04,66.31c1.52.85,3.34,1.33,5.41,1.33s3.89-.42,5.37-1.33c1.52-.85,2.28-1.94,2.28-3.15s-.76-2.3-2.28-3.15c-1.44-.91-3.26-1.33-5.37-1.33s-3.89.42-5.41,1.33c-1.48.85-2.24,1.94-2.24,3.15,0,1.21.76,2.24,2.24,3.15Z"/>
  </g>
</svg>