<?xml version="1.0" encoding="UTF-8"?>
<svg id="Layer_2" data-name="Layer 2" xmlns="http://www.w3.org/2000/svg" viewBox="0 0 128.15 106.7">
  <defs>
    <style>
      .cls-1 {
        stroke-width: 0px;
      }
    </style>
  </defs>
  <g id="y3k_tingies" data-name="y3k tingies">
    <path class="cls-1" d="M74.49,69.26c-10.98,13.93-24.71,28.18-41.28,35.25-9.48,4-20.6,3.25-23.31-8.49-3.73-19.69,10.84-44.23,22.34-59.42C44.03,21.65,64.14,1.34,84.13,0c12.03-.32,15.58,10.2,14.09,20.44-2.67,17.8-13.01,34.69-23.73,48.82h0ZM74.49,69.26c11.14-14.69,25.52-38.83,21.97-57.77-4.86-17.93-26.63-5.3-35.92,2.01-9.5,7.27-17.81,16.08-25.14,25.53-7.31,9.46-13.75,19.72-18.39,30.75-4.79,10.87-11.46,35.05,7.1,35.28,19.24-1.34,38.95-21.32,50.38-35.81h0Z"/>
    <path class="cls-1" d="M53.65,69.28c11.43,14.46,31.19,34.45,50.42,35.76,18.57-.26,11.86-24.43,7.06-35.29-4.66-11.02-11.1-21.28-18.42-30.73-7.33-9.45-15.65-18.24-25.16-25.51-9.3-7.32-31.09-19.91-35.92-1.98-3.53,18.96,10.86,43.05,22.02,57.75h0ZM53.65,69.28c-10.74-14.13-21.09-30.98-23.78-48.79C27.61,3.85,37.52-3.81,53.24,1.88c17.5,6.62,31.18,20.38,42.63,34.69,11.51,15.16,26.11,39.73,22.4,59.4-2.71,11.72-13.77,12.52-23.3,8.51-16.59-7.06-30.3-21.27-41.31-35.21h0Z"/>
    <path class="cls-1" d="M64.07,81.36c-17.76-.17-37.38-2.3-53.13-11.09-14.53-8.4-14.52-20.92-.39-29.85,15.95-9.77,35.2-12.17,53.52-12.46,18.32.29,37.58,2.67,53.53,12.45,14.06,8.9,14.21,21.43-.39,29.87-15.74,8.79-35.38,10.92-53.13,11.09h0ZM64.07,81.36c18.43-.17,46.33-3.57,59.14-17.96,11.22-14.81-12.1-24.31-23.57-27.18-11.56-3.07-23.61-4.26-35.57-4.27-11.96,0-24.01,1.19-35.58,4.26-11.53,2.86-34.73,12.37-23.57,27.2,12.78,14.38,40.73,17.78,59.14,17.95h0Z"/>
  </g>
</svg>