<?xml version="1.0" encoding="UTF-8"?>
<svg id="Layer_2" data-name="Layer 2" xmlns="http://www.w3.org/2000/svg" viewBox="0 0 512.47 172.85">
  <defs>
    <style>
      .cls-1 {
        stroke-width: 0px;
      }
    </style>
  </defs>
  <g id="jujube">
    <path class="cls-1" d="M47.52,49.93c17.88-18.12,51.36-19.89,47.48,41.18-2.3,36.19-18.91,81.46-46.7,81.74-31.31.31-55.04-77.78-46.56-84.59s32.43,16.54,32.43,37.22c0,53.37,36.54,47.37,50.82,1.59,24.76-79.39-21.3-96.71-26.14-58.22-7.53,59.9-53.24,23.54-11.34-18.92Z"/>
    <path class="cls-1" d="M150.54,49.84c10.17-2.88,10.78,8.85,21.81,43.98,13.68,43.59-74.29,66.91-73.41,1.09.79-59.57,28.38-61.68,27.2-48.53-1.1,12.3-18.77,12.17-22.97,31.42-10.2,46.75,63.87,45.07,66.66,28.9,2.88-16.67-18.32-24.03-31.24-24.24-15.59-.25-10.65-26.21,11.95-32.62Z"/>
    <path class="cls-1" d="M327.66,49.84c10.17-2.88,10.78,8.85,21.81,43.98,13.68,43.59-74.29,66.91-73.41,1.09.79-59.57,28.38-61.68,27.2-48.53-1.1,12.3-18.77,12.17-22.97,31.42-10.2,46.75,63.87,45.07,66.66,28.9,2.88-16.67-18.32-24.03-31.24-24.24-15.59-.25-10.65-26.21,11.95-32.62Z"/>
    <ellipse class="cls-1" cx="41.35" cy="32.64" rx="14.56" ry="10.83" transform="translate(-10.38 42.59) rotate(-49.17)"/>
    <path class="cls-1" d="M224.64,49.93c17.88-18.12,51.36-19.89,47.48,41.18-2.3,36.19-18.91,81.46-46.7,81.74-31.31.31-55.04-77.78-46.56-84.59,8.71-7,32.43,16.54,32.43,37.22,0,53.37,36.54,47.37,50.82,1.59,24.76-79.39-21.3-96.71-26.14-58.22-7.53,59.9-53.24,23.54-11.34-18.92Z"/>
    <ellipse class="cls-1" cx="218.47" cy="32.64" rx="14.56" ry="10.83" transform="translate(50.93 176.6) rotate(-49.17)"/>
    <path class="cls-1" d="M432.41,87.1c-3.71-20.72-20.6-33.23-47.06-29.8-25.99,3.37-32.44-.23-23.25-35.94,8.41-32.68-21.38-24.03-15.86.24,8.95,39.29,11.06,28.78,8.16,66.35-5.3,68.73,88.75,59.19,78.01-.85ZM425.93,108.46c-9.54,11.74-31.46,14.37-48.97,5.88-17.51-8.5-23.98-24.91-14.44-36.65,9.53-11.74,31.46-14.37,48.97-5.88,17.51,8.5,23.97,24.91,14.44,36.65Z"/>
    <path class="cls-1" d="M497.58,105.37c-8.29,8.49-5.08,13.96-21.58,21.92-8.01,3.87-30.67-1.52-31.01-16.23-.31-13.69,20.64-9.27,33.68-8.89,50.93,1.47,36.58-47.23,2.63-48.75-28.03-1.25-45.38,19.47-45.38,40.31,0,45.8,55.68,54.76,75.03,17.85,5.65-10.77-5.65-14.12-13.36-6.21ZM446.1,71.77c8.81-10.81,25.45-17.16,37.16-14.18,11.72,2.97,14.08,14.15,5.27,24.96s-25.45,17.16-37.17,14.18c-11.72-2.98-14.07-14.15-5.26-24.96Z"/>
  </g>
</svg>