<?xml version="1.0" encoding="UTF-8"?>
<svg id="Layer_2" data-name="Layer 2" xmlns="http://www.w3.org/2000/svg" viewBox="0 0 53.38 72.73">
  <defs>
    <style>
      .cls-1 {
        fill: none;
        stroke: #000;
        stroke-miterlimit: 10;
      }
    </style>
  </defs>
  <g id="Layer_1-2" data-name="Layer 1">
    <path class="cls-1" d="m25.94,33.28c10.86,0,23.25,25.17,17.52,28.44C36.73,65.56,8.44,6.07,1.8,9.87c-5.65,3.24,7.97,19.39,24.15,19.41,16.23.01,33.86-7.28,24.16-9.74-7.42-1.88-41.28,56.34-47.98,52.5-5.69-3.26,12.98-38.78,23.82-38.77Z"/>
    <path class="cls-1" d="m27.19.5c4.33,0,7.84,4.81,7.84,10.74,0,5.93-3.51,10.74-7.84,10.74s-7.84-4.81-7.84-10.74S22.86.5,27.19.5Z"/>
  </g>
</svg>