<?xml version="1.0" encoding="UTF-8"?>
<svg id="Layer_2" data-name="Layer 2" xmlns="http://www.w3.org/2000/svg" viewBox="0 0 101.93 98.19">
  <defs>
    <style>
      .cls-1 {
        fill: none;
        stroke: #000;
        stroke-miterlimit: 10;
      }
    </style>
  </defs>
  <g id="Layer_1-2" data-name="Layer 1">
    <path class="cls-1" d="m65.05,37.48C54.01,11.94,51.8,3.28,31.94,25.36,11.82,47.71,8.76,37.48.48,12.16"/>
    <path class="cls-1" d="m74.98,33.48C63.94,7.94,61.73-.72,41.87,21.36c-20.11,22.35-23.18,12.12-31.46-13.21"/>
    <path class="cls-1" d="m84.91,29.48c-11.04-25.54-13.24-34.2-33.11-12.12-20.11,22.35-23.18,12.12-31.46-13.21"/>
    <path class="cls-1" d="m94.84,25.48C83.81-.06,81.6-8.72,61.73,13.36,41.62,35.71,38.55,25.48,30.27.16"/>
    <path class="cls-1" d="m68.36,67.48c-11.04-25.54-13.24-34.2-33.11-12.12-20.11,22.35-23.18,12.12-31.46-13.21"/>
    <path class="cls-1" d="m78.3,63.48c-11.04-25.54-13.24-34.2-33.11-12.12-20.11,22.35-23.18,12.12-31.46-13.21"/>
    <path class="cls-1" d="m88.23,59.48c-11.04-25.54-13.24-34.2-33.11-12.12-20.11,22.35-23.18,12.12-31.46-13.21"/>
    <path class="cls-1" d="m98.16,55.48c-11.04-25.54-13.24-34.2-33.11-12.12-20.11,22.35-23.18,12.12-31.46-13.21"/>
    <path class="cls-1" d="m71.68,97.48c-11.04-25.54-13.24-34.2-33.11-12.12-20.11,22.35-23.18,12.12-31.46-13.21"/>
    <path class="cls-1" d="m81.61,93.48c-11.04-25.54-13.24-34.2-33.11-12.12-20.11,22.35-23.18,12.12-31.46-13.21"/>
    <path class="cls-1" d="m91.54,89.48c-11.04-25.54-13.24-34.2-33.11-12.12-20.11,22.35-23.18,12.12-31.46-13.21"/>
    <path class="cls-1" d="m101.48,85.48c-11.04-25.54-13.24-34.2-33.11-12.12-20.11,22.35-23.18,12.12-31.46-13.21"/>
  </g>
</svg>